# xmcd
#
# Track frame offsets:
#	150
#	12775
#	22747
#	34350
#	45255
#	55260
#	67220
#	76182
#	88570
#	106570
#	126902
#	142820
#	157950
#	172985
#	191042
#	210170
#
# Disc length: 2987 seconds
#
# Revision: 1
# Processed by: cddbd v1.4PL0 Copyright (c) Steve Scherf et al.
# Submitted via: audiograbber 1.81.01
#
DISCID=bb0ba910
DTITLE=Sam Cooke and Percy Sledge - Soul Fever
DYEAR=1900
DGENRE=
TTITLE0=Sam Cooke - You Send Me
TTITLE1=Sam Cooke - Stealing Kisses
TTITLE2=Sam Cooke - Ol' Man River
TTITLE3=Sam Cooke - All Of My Life
TTITLE4=Sam Cooke - Steal Away
TTITLE5=Sam Cooke - Everybody Loves to Cha Cha Cha
TTITLE6=Sam Cooke - Only Sixteen
TTITLE7=Sam Cooke - Win Your Love For Me
TTITLE8=Percy Sledge - When A Man Loves A Woman
TTITLE9=Percy Sledge - Behind Closed Doors
TTITLE10=Percy Sledge - Just Out Of Reach
TTITLE11=Percy Sledge - Make It Good And Make It Last
TTITLE12=Percy Sledge - Out Of Left Field
TTITLE13=Percy Sledge - I Believe In You
TTITLE14=Percy Sledge - Take Time To Know Her
TTITLE15=Percy Sledge - Warm And Tender Love
EXTD=
EXTT0=
EXTT1=
EXTT2=
EXTT3=
EXTT4=
EXTT5=
EXTT6=
EXTT7=
EXTT8=
EXTT9=
EXTT10=
EXTT11=
EXTT12=
EXTT13=
EXTT14=
EXTT15=
PLAYORDER=
